# xmcd CD database file
#
# Track frame offsets:
#	150
#	24507
#	43775
#	68077
#	89090
#	110055
#	121230
#	137055
#	150967
#	181120
#	201045
#
# Disc length: 2948 seconds
#
# Revision: 0
# Processed by: cddbd v1.5.1PL2 Copyright (c) Steve Scherf et al.
# Submitted via: CDex 1.51
#
DISCID=900b820b
DTITLE=John Boutte and Glenn Patscha - Scotch and Soda
DYEAR=1996
DGENRE=Jazz
TTITLE0=A Cottage for Sale
TTITLE1=When I Grow too Old to Dream
TTITLE2=The Nearness of You
TTITLE3=Hallelujah I Love Her So
TTITLE4=I Cover the Waterfront
TTITLE5=Sweet Lorraine
TTITLE6=Please Send Me Someone to Love
TTITLE7=Margie
TTITLE8=Stardust
TTITLE9=Scotch and Soda
TTITLE10=We Shall Overcome
EXTD=YEAR: 1996
EXTT0=
EXTT1=
EXTT2=
EXTT3=
EXTT4=
EXTT5=
EXTT6=
EXTT7=
EXTT8=
EXTT9=
EXTT10=
PLAYORDER=
